<svg data-v-423bf9ae="" xmlns="http://www.w3.org/2000/svg" viewBox="0 0 258.20356676816004 245" class="iconAbove"><!----><!----><!----><g data-v-423bf9ae="" id="bb203bb3-a212-4815-bee8-899b3aa6262f" fill="white" transform="matrix(3.340582847595215,0,0,3.340582847595215,-1.8660353422164917,180.2482147216797)"><path d="M7.21 1.32C7.21 1.32 7.18 1.18 6.99 1.18C6.51 1.50 6.31 1.62 5.77 1.82C5.25 1.99 4.98 2.04 4.61 2.11C4.61 2.11 4.55 2.18 4.55 2.30C4.55 2.35 4.58 2.41 4.61 2.46C4.61 2.46 4.93 2.51 5.11 2.52C5.81 2.60 5.81 3.46 5.81 4.26L5.81 6.80C5.42 6.75 4.41 6.58 4.19 6.58C3.85 6.58 0.56 7.10 0.56 10.28C0.56 12.21 1.89 13.72 3.18 13.99C4.09 13.64 4.94 13.24 5.78 12.71C5.78 13.43 6.31 13.99 6.55 13.99C6.55 13.99 7.07 13.59 8.12 13.41C8.12 13.41 8.13 13.36 8.13 13.27C8.13 13.22 8.13 13.13 8.08 13.03C7.74 13.05 7.71 13.05 7.57 13.05C7.06 13.05 7 12.59 6.96 12.03C6.93 11.52 6.93 10.86 6.93 10.22C6.93 6.20 6.93 2.38 7.21 1.32ZM3.82 12.99C2.80 12.99 1.74 11.48 1.74 9.74C1.74 8.40 2.80 7.17 3.53 7.17C3.70 7.17 5.81 7.49 5.81 8.11L5.81 12.12C5.32 12.49 4.58 12.99 3.82 12.99ZM12.66 12.98C10.86 12.98 10.26 11.24 10.26 9.79C12.64 9.56 15.11 8.99 15.11 8.99C15.12 8.93 15.13 8.88 15.13 8.82C15.13 8.67 15.05 8.57 15.05 8.57C14.74 8.55 14.69 8.51 14.66 8.39C14.24 6.94 12.87 6.58 12.10 6.58C10.74 6.89 9.11 7.94 9.11 10.35C9.11 12.40 10.32 13.99 11.97 13.99C12.77 13.99 13.27 13.82 13.40 13.72L14.91 12.66C14.88 12.43 14.69 12.36 14.69 12.36C14.13 12.75 13.50 12.98 12.66 12.98ZM11.21 7.28C11.44 7.14 11.72 7.14 11.86 7.14C13.05 7.14 13.61 8.55 13.61 8.62C13.61 8.67 13.59 8.68 13.54 8.71C13.16 8.83 12.75 8.93 12.14 9.04C11.61 9.13 10.65 9.21 10.32 9.21C10.37 8.55 10.58 7.71 11.21 7.28ZM18.31 13.78C18.42 13.80 19.22 13.99 19.54 13.99C19.99 13.99 23.48 13.65 23.48 10.29C23.48 8.34 22.13 6.83 20.85 6.58C19.68 7.04 19.50 7.11 18.38 7.81C18.34 7.04 17.84 6.58 17.61 6.58C17.61 6.58 17.05 6.97 15.99 7.15C15.99 7.15 15.97 7.21 15.97 7.28C15.97 7.34 15.97 7.43 16.03 7.53C16.20 7.53 16.38 7.50 16.52 7.50C17.08 7.50 17.19 8.04 17.19 9.46L17.19 12.88C17.19 14.56 17.16 16.69 17.05 17.47C17.00 17.91 16.86 18.31 16.02 18.51C16.02 18.51 15.99 18.56 15.99 18.62C15.99 18.69 16.02 18.80 16.07 18.86C16.83 18.75 17.61 18.75 18.03 18.75C18.40 18.75 19.28 18.79 20.05 18.79C20.08 18.70 20.08 18.63 20.08 18.58C20.08 18.45 20.05 18.35 20.05 18.35C19.45 18.35 18.90 18.35 18.48 18.31C18.34 18.30 18.31 15.72 18.31 14.56ZM18.34 8.44C18.79 8.06 19.46 7.56 20.13 7.56C21.17 7.56 22.30 9.07 22.30 10.81C22.30 12.18 21.46 13.38 20.23 13.38C19.89 13.38 18.31 12.91 18.31 12.60C18.31 11.45 18.31 9.60 18.34 8.44ZM26.61 7.88C26.61 5.71 26.68 2.72 26.91 1.32C26.91 1.32 26.84 1.18 26.68 1.18C26.21 1.46 25.98 1.65 25.44 1.83C24.93 2.00 24.70 2.04 24.32 2.11C24.28 2.18 24.28 2.27 24.28 2.28C24.28 2.30 24.28 2.39 24.32 2.46C24.32 2.46 24.64 2.51 24.82 2.52C25.51 2.60 25.51 3.46 25.51 4.26L25.51 7.84C25.51 10.56 25.47 11.87 25.37 12.43C25.30 12.87 25.17 13.27 24.21 13.47C24.21 13.47 24.19 13.52 24.19 13.58C24.19 13.65 24.21 13.75 24.26 13.82C25.03 13.72 25.94 13.71 26.35 13.71C26.66 13.71 27.27 13.75 27.89 13.75C27.92 13.66 27.92 13.59 27.92 13.54C27.92 13.41 27.89 13.31 27.89 13.31C27.44 13.31 27.05 13.31 26.80 13.26C26.63 13.20 26.61 10.68 26.61 9.52ZM35.91 10.29C35.91 8.22 34.37 6.58 32.41 6.58C30.31 6.92 28.78 7.98 28.78 10.29C28.78 12.40 30.34 13.99 32.30 13.99C34.38 13.65 35.91 12.60 35.91 10.29ZM32.61 13.38C30.98 13.38 30.07 11.56 30.07 9.74C30.07 8.33 30.62 7.17 32.13 7.17C33.75 7.17 34.62 9.00 34.62 10.81C34.62 12.26 34.12 13.38 32.61 13.38ZM40.31 12.75L38.95 9.39C38.64 8.65 38.39 7.98 38.28 7.22C38.46 7.20 38.58 7.20 38.89 7.20C38.89 7.20 38.92 7.10 38.92 6.97C38.92 6.92 38.92 6.83 38.89 6.76C38.44 6.78 37.91 6.80 37.69 6.80C37.35 6.80 36.88 6.76 36.23 6.66C36.16 6.78 36.16 6.92 36.16 7.03C36.44 7.11 36.60 7.22 36.71 7.36C36.95 7.62 37.21 8.20 37.35 8.55L39.63 14.15L39.13 15.50C38.72 16.56 37.69 18.31 37.10 18.31C36.95 18.31 36.72 18.26 36.55 18.23C36.43 18.40 36.43 18.52 36.43 18.68C37.32 18.86 37.91 19.14 38.08 19.14C38.47 19.14 39.26 16.79 39.51 16.17C39.62 15.88 40.07 14.66 40.46 13.71L42.49 8.83C42.87 7.95 43.06 7.66 43.32 7.39C43.46 7.25 43.57 7.20 43.82 7.08C43.82 7.03 43.79 6.86 43.71 6.72C43.18 6.80 42.90 6.80 42.53 6.80L41.16 6.80C41.15 6.86 41.13 6.93 41.13 6.99C41.13 7.14 41.19 7.22 41.19 7.22C41.54 7.22 41.97 7.25 42.22 7.28C42.17 7.81 41.87 8.74 41.52 9.63ZM45.46 9.21C45.46 10.29 45.46 11.82 45.39 12.43C45.33 12.87 45.23 13.27 44.38 13.47C44.38 13.47 44.37 13.52 44.37 13.58C44.37 13.65 44.38 13.75 44.44 13.82C45.12 13.72 45.91 13.71 46.28 13.71C46.47 13.71 46.86 13.75 47.25 13.75C47.29 13.69 47.31 13.61 47.31 13.55C47.31 13.43 47.25 13.31 47.25 13.31C47.03 13.31 46.90 13.31 46.75 13.27C46.62 13.26 46.58 12.14 46.58 11.30C46.58 10.50 46.58 9.55 46.63 8.44C47.17 8.05 47.87 7.55 48.71 7.55C49.77 7.55 49.77 9.16 49.77 10.57C49.77 11.42 49.74 12.14 49.70 12.43C49.64 12.87 49.53 13.27 48.69 13.47C48.69 13.47 48.68 13.54 48.68 13.59C48.68 13.66 48.69 13.75 48.75 13.82C49.43 13.72 50.22 13.71 50.60 13.71C50.82 13.71 51.20 13.75 51.66 13.75C51.70 13.66 51.70 13.59 51.70 13.54C51.70 13.41 51.66 13.31 51.66 13.31C51.34 13.31 51.27 13.31 51.06 13.27C50.89 13.24 50.86 12.35 50.86 10.91C50.86 10.39 50.88 9.28 50.88 9.06C50.88 8.85 50.86 8.62 50.83 8.44C51.38 8.06 52.11 7.55 52.91 7.55C53.97 7.55 53.97 9.16 53.97 10.57C53.97 11.42 53.94 12.14 53.90 12.43C53.84 12.87 53.77 13.27 53.07 13.47C53.07 13.47 53.06 13.52 53.06 13.58C53.06 13.65 53.07 13.75 53.13 13.82C53.75 13.72 54.46 13.71 54.80 13.71C55.02 13.71 55.62 13.75 56.08 13.75C56.13 13.66 56.13 13.59 56.13 13.54C56.13 13.41 56.08 13.31 56.08 13.31C55.76 13.31 55.52 13.31 55.31 13.27C55.19 13.26 55.12 12.35 55.12 10.91C55.12 10.39 55.13 9.28 55.13 9.06C55.13 7.60 54.56 6.58 53.52 6.58C52.50 6.93 51.88 7.21 50.72 7.87C50.50 7.08 50.04 6.58 49.32 6.58C48.30 6.93 47.80 7.17 46.61 7.84C46.45 7.27 46.17 6.58 45.99 6.58C45.84 6.58 45.43 6.89 44.20 7.06C44.20 7.06 44.17 7.14 44.17 7.22C44.17 7.31 44.17 7.38 44.23 7.43C44.39 7.43 44.65 7.42 44.77 7.42C45.46 7.43 45.46 8.26 45.46 9.21ZM60.83 12.98C59.04 12.98 58.44 11.24 58.44 9.79C60.82 9.56 63.28 8.99 63.28 8.99C63.29 8.93 63.31 8.88 63.31 8.82C63.31 8.67 63.22 8.57 63.22 8.57C62.92 8.55 62.86 8.51 62.83 8.39C62.41 6.94 61.04 6.58 60.27 6.58C58.91 6.89 57.29 7.94 57.29 10.35C57.29 12.40 58.49 13.99 60.14 13.99C60.94 13.99 61.45 13.82 61.57 13.72L63.08 12.66C63.06 12.43 62.86 12.36 62.86 12.36C62.30 12.75 61.67 12.98 60.83 12.98ZM59.39 7.28C59.61 7.14 59.89 7.14 60.03 7.14C61.22 7.14 61.78 8.55 61.78 8.62C61.78 8.67 61.77 8.68 61.71 8.71C61.33 8.83 60.93 8.93 60.31 9.04C59.78 9.13 58.83 9.21 58.49 9.21C58.55 8.55 58.76 7.71 59.39 7.28ZM66.65 7.84C66.50 7.27 66.22 6.58 66.04 6.58C65.88 6.58 65.48 6.89 64.25 7.06C64.22 7.14 64.22 7.22 64.22 7.25C64.22 7.28 64.22 7.36 64.27 7.43C64.37 7.43 64.69 7.42 64.82 7.42C65.51 7.43 65.51 8.26 65.51 9.21C65.51 10.29 65.51 11.82 65.44 12.43C65.38 12.87 65.28 13.27 64.43 13.47C64.43 13.47 64.41 13.52 64.41 13.58C64.41 13.65 64.43 13.75 64.48 13.82C65.17 13.72 65.95 13.71 66.33 13.71C66.56 13.71 67.06 13.75 67.52 13.75C67.56 13.66 67.58 13.59 67.58 13.54C67.58 13.41 67.52 13.31 67.52 13.31C67.23 13.31 67.00 13.31 66.79 13.27C66.67 13.26 66.63 12.14 66.63 11.30C66.63 10.50 66.63 9.55 66.68 8.44C67.23 8.06 67.96 7.55 68.80 7.55C70.03 7.55 70.03 9.07 70.03 10.57C70.03 11.42 70.01 12.14 69.97 12.43C69.92 12.87 69.82 13.27 68.96 13.47C68.96 13.47 68.95 13.52 68.95 13.58C68.95 13.65 68.96 13.75 69.02 13.82C69.71 13.71 70.49 13.71 70.87 13.71C71.09 13.71 71.69 13.75 72.16 13.75C72.20 13.66 72.21 13.59 72.21 13.54C72.21 13.41 72.16 13.31 72.16 13.31C71.86 13.31 71.58 13.31 71.37 13.27C71.25 13.26 71.16 12.35 71.16 10.91C71.16 10.39 71.19 9.28 71.19 9.06C71.19 7.60 70.57 6.58 69.41 6.58C68.39 6.93 67.84 7.17 66.65 7.84ZM77.31 7.39C77.34 7.21 77.35 7.04 77.45 6.87C77.45 6.76 77.35 6.71 77.35 6.71C76.36 6.80 75.91 6.80 75.33 6.80C75.33 5.81 75.46 4.34 75.46 4.34C75.38 4.26 75.29 4.26 75.21 4.26C74.66 4.91 74.14 5.12 74.14 5.12C74.14 5.12 74.16 5.91 74.16 6.31C74.16 6.47 74.16 6.80 74.05 6.80L73.05 6.80C73.02 6.99 73.02 7.11 72.93 7.31C72.93 7.42 73.02 7.45 73.02 7.45C73.02 7.45 73.49 7.43 74.06 7.43C74.16 7.43 74.16 7.73 74.16 8.26L74.16 11.51C74.16 12.98 74.61 13.99 75.50 13.99C76.61 13.64 77.01 13.47 77.85 13.02C77.85 12.80 77.73 12.66 77.64 12.63C77.04 12.88 76.72 13.02 76.12 13.02C75.32 13.02 75.32 11.37 75.32 10.70L75.32 7.42Z"></path></g><!----><g data-v-423bf9ae="" id="7be4e2ea-8aac-4516-a838-60fac43e915b" transform="matrix(1.3791667222976685,0,0,1.3791667222976685,41.65399169921875,-2.3291702270507812)" stroke="none" fill="white"><path d="M65.972 1.938l9.362 12.382-9.425 12.465c19.685.993 35.339 17.269 35.339 37.2a37.083 37.083 0 0 1-4.041 16.868l6.09 14.413 15.411-1.918c4.702-8.744 7.372-18.741 7.372-29.363 0-33.628-26.735-61.005-60.108-62.047z"></path><path d="M30.837 80.937a37.083 37.083 0 0 1-4.085-16.952c0-19.905 15.614-36.162 35.262-37.195l9.429-12.47-9.364-12.383C28.682 2.951 1.919 30.341 1.919 63.984c0 10.606 2.663 20.59 7.352 29.323l6.043-14.303 15.523 1.933z"></path><path d="M95.262 84.225C88.623 94.456 77.105 101.231 64 101.231c-13.07 0-24.561-6.738-31.208-16.924l-15.531-1.934-6.042 14.3c10.95 17.641 30.492 29.39 52.781 29.39 22.271 0 41.799-11.729 52.754-29.345l-15.404 1.918-6.088-14.411z"></path></g><!----></svg>